<mxfile modified="2023-05-15T06:30:42.661Z" host="app.diagrams.net" agent="Mozilla/5.0 (Windows NT 10.0; Win64; x64) AppleWebKit/537.36 (KHTML, like Gecko) Chrome/113.0.0.0 Safari/537.36" etag="wzm6AhqGZ159BzLscARN" version="21.3.0" type="github">
  <diagram id="-AoS3aZuVU1gZGTSnwES" name="Page-1">
    <mxGraphModel dx="1050" dy="581" grid="1" gridSize="10" guides="1" tooltips="1" connect="1" arrows="1" fold="1" page="1" pageScale="1" pageWidth="850" pageHeight="1100" math="0" shadow="0">
      <root>
        <mxCell id="0" />
        <mxCell id="1" parent="0" />
        <mxCell id="NsvNeeM-Z885Ar_qXPRW-5" value="CargoMatrix and JAS Architecture" style="swimlane;html=1;childLayout=stackLayout;resizeParent=1;resizeParentMax=0;startSize=20;" parent="1" vertex="1">
          <mxGeometry x="120" y="50" width="1050" height="790" as="geometry">
            <mxRectangle x="20" y="410" width="60" height="20" as="alternateBounds" />
          </mxGeometry>
        </mxCell>
        <mxCell id="NsvNeeM-Z885Ar_qXPRW-7" value="CARGOMATRIX API" style="swimlane;html=1;startSize=20;" parent="NsvNeeM-Z885Ar_qXPRW-5" vertex="1">
          <mxGeometry y="20" width="250" height="770" as="geometry" />
        </mxCell>
        <mxCell id="NsvNeeM-Z885Ar_qXPRW-17" value="&lt;ol&gt;&lt;li&gt;GetShipment&lt;/li&gt;&lt;li&gt;GetBooking&lt;/li&gt;&lt;li&gt;GetOrder&lt;/li&gt;&lt;li&gt;AddOrder&lt;/li&gt;&lt;li&gt;UploadOrderDocument&lt;/li&gt;&lt;li&gt;AddBooking&lt;/li&gt;&lt;li&gt;&lt;span&gt;ApproveBooking&lt;/span&gt;&lt;br&gt;&lt;/li&gt;&lt;/ol&gt;" style="text;strokeColor=#000000;fillColor=none;html=1;whiteSpace=wrap;verticalAlign=middle;overflow=hidden;" parent="NsvNeeM-Z885Ar_qXPRW-7" vertex="1">
          <mxGeometry x="5" y="50" width="240" height="120" as="geometry" />
        </mxCell>
        <mxCell id="NsvNeeM-Z885Ar_qXPRW-18" value="&lt;ol&gt;&lt;li&gt;&lt;font color=&quot;#ff3333&quot;&gt;GetShipments&lt;/font&gt;&lt;/li&gt;&lt;li&gt;GetOrders&lt;/li&gt;&lt;li&gt;GetBookings&lt;/li&gt;&lt;li&gt;GetOrganizations&lt;/li&gt;&lt;li&gt;GetOrgAddresses&lt;/li&gt;&lt;li&gt;GetBuyersOf&lt;/li&gt;&lt;li&gt;&lt;span&gt;GetShipmentPorts&lt;/span&gt;&lt;br&gt;&lt;/li&gt;&lt;li&gt;RerieveContainerShipmentStatus&lt;/li&gt;&lt;li&gt;RetrieveDocumentTypes&lt;/li&gt;&lt;/ol&gt;" style="text;strokeColor=#000000;fillColor=none;html=1;whiteSpace=wrap;verticalAlign=middle;overflow=hidden;" parent="NsvNeeM-Z885Ar_qXPRW-7" vertex="1">
          <mxGeometry x="4" y="200" width="240" height="160" as="geometry" />
        </mxCell>
        <mxCell id="NsvNeeM-Z885Ar_qXPRW-19" value="&lt;ol&gt;&lt;li&gt;&lt;font color=&quot;#ff3333&quot;&gt;GetShipGeoLoc&lt;/font&gt;&lt;/li&gt;&lt;li&gt;&lt;font color=&quot;#ff3333&quot;&gt;GetAirlineGeoLoc&lt;/font&gt;&lt;/li&gt;&lt;/ol&gt;" style="text;strokeColor=#000000;fillColor=none;html=1;whiteSpace=wrap;verticalAlign=middle;overflow=hidden;" parent="NsvNeeM-Z885Ar_qXPRW-7" vertex="1">
          <mxGeometry x="4" y="550" width="240" height="80" as="geometry" />
        </mxCell>
        <mxCell id="yNjCL7asKgWxfmT6TZ3R-2" value="&lt;ol&gt;&lt;li&gt;GetCurrencies&lt;/li&gt;&lt;li&gt;GetCountries&lt;/li&gt;&lt;li&gt;GetPackTypes&lt;/li&gt;&lt;li&gt;GetUnitTypes&lt;/li&gt;&lt;li&gt;GetServiceLevels&lt;/li&gt;&lt;li&gt;GetContainerTypes&lt;/li&gt;&lt;li&gt;GetVessels&lt;/li&gt;&lt;li&gt;GetIMONumbers&lt;/li&gt;&lt;li&gt;GetPorts&lt;/li&gt;&lt;li&gt;GetPort&lt;/li&gt;&lt;/ol&gt;" style="text;strokeColor=#000000;fillColor=none;html=1;whiteSpace=wrap;verticalAlign=middle;overflow=hidden;" parent="NsvNeeM-Z885Ar_qXPRW-7" vertex="1">
          <mxGeometry x="5" y="370" width="240" height="160" as="geometry" />
        </mxCell>
        <mxCell id="NsvNeeM-Z885Ar_qXPRW-8" value="JAS&amp;nbsp;" style="swimlane;html=1;startSize=20;" parent="NsvNeeM-Z885Ar_qXPRW-5" vertex="1">
          <mxGeometry x="250" y="20" width="400" height="770" as="geometry" />
        </mxCell>
        <mxCell id="NsvNeeM-Z885Ar_qXPRW-22" value="" style="rounded=1;whiteSpace=wrap;html=1;" parent="NsvNeeM-Z885Ar_qXPRW-8" vertex="1">
          <mxGeometry x="44" y="60" width="316" height="470" as="geometry" />
        </mxCell>
        <mxCell id="NsvNeeM-Z885Ar_qXPRW-9" value="Odyssey &lt;br&gt;DB&lt;br&gt;(Tables)" style="shape=dataStorage;whiteSpace=wrap;html=1;" parent="NsvNeeM-Z885Ar_qXPRW-8" vertex="1">
          <mxGeometry x="69.5" y="440" width="261" height="70" as="geometry" />
        </mxCell>
        <mxCell id="NsvNeeM-Z885Ar_qXPRW-15" value="User Repo&amp;nbsp;DB&lt;br&gt;(SP&amp;amp;Functions)&lt;br&gt;&lt;font color=&quot;#ff6666&quot;&gt;Freight_GetShipments&lt;br&gt;&lt;/font&gt;Freight_GetBookings&lt;br&gt;Freight_GetDocuments&lt;br&gt;Freight_GetMasterOrgsOrganizations&lt;br&gt;Freight_GetOrders&lt;br&gt;Freight_GetOrgAddresses&lt;br&gt;Freight_GetOrgParent&lt;br&gt;Freight_GetShipmentPorts&lt;br&gt;Freight_GetShipStatus" style="shape=dataStorage;whiteSpace=wrap;html=1;" parent="NsvNeeM-Z885Ar_qXPRW-8" vertex="1">
          <mxGeometry x="59" y="170" width="261" height="230" as="geometry" />
        </mxCell>
        <mxCell id="NsvNeeM-Z885Ar_qXPRW-16" value="eAdaptor" style="ellipse;whiteSpace=wrap;html=1;" parent="NsvNeeM-Z885Ar_qXPRW-8" vertex="1">
          <mxGeometry x="125" y="85" width="150" height="60" as="geometry" />
        </mxCell>
        <mxCell id="NsvNeeM-Z885Ar_qXPRW-23" value="SMARTHUB SERVICE" style="text;html=1;strokeColor=none;fillColor=none;align=center;verticalAlign=middle;whiteSpace=wrap;rounded=0;" parent="NsvNeeM-Z885Ar_qXPRW-8" vertex="1">
          <mxGeometry x="125" y="40" width="150" height="20" as="geometry" />
        </mxCell>
        <mxCell id="yNjCL7asKgWxfmT6TZ3R-3" value="Marine Tracker&lt;br&gt;&amp;nbsp;API" style="rounded=1;whiteSpace=wrap;html=1;strokeColor=#000000;" parent="NsvNeeM-Z885Ar_qXPRW-8" vertex="1">
          <mxGeometry x="117" y="560" width="170" height="60" as="geometry" />
        </mxCell>
        <mxCell id="yNjCL7asKgWxfmT6TZ3R-5" value="" style="html=1;shadow=0;dashed=0;align=center;verticalAlign=middle;shape=mxgraph.arrows2.twoWayArrow;dy=0.65;dx=22;strokeColor=#000000;" parent="NsvNeeM-Z885Ar_qXPRW-8" vertex="1">
          <mxGeometry x="-5" y="110" width="125" height="10" as="geometry" />
        </mxCell>
        <mxCell id="yNjCL7asKgWxfmT6TZ3R-6" value="" style="html=1;shadow=0;dashed=0;align=center;verticalAlign=middle;shape=mxgraph.arrows2.twoWayArrow;dy=0.65;dx=22;strokeColor=#000000;" parent="NsvNeeM-Z885Ar_qXPRW-8" vertex="1">
          <mxGeometry x="-5" y="275" width="65" height="10" as="geometry" />
        </mxCell>
        <mxCell id="yNjCL7asKgWxfmT6TZ3R-7" value="" style="html=1;shadow=0;dashed=0;align=center;verticalAlign=middle;shape=mxgraph.arrows2.twoWayArrow;dy=0.65;dx=22;strokeColor=#000000;" parent="NsvNeeM-Z885Ar_qXPRW-8" vertex="1">
          <mxGeometry x="-6" y="470" width="76" height="10" as="geometry" />
        </mxCell>
        <mxCell id="yNjCL7asKgWxfmT6TZ3R-8" value="" style="html=1;shadow=0;dashed=0;align=center;verticalAlign=middle;shape=mxgraph.arrows2.twoWayArrow;dy=0.65;dx=22;strokeColor=#000000;" parent="NsvNeeM-Z885Ar_qXPRW-8" vertex="1">
          <mxGeometry x="-8" y="585" width="125" height="10" as="geometry" />
        </mxCell>
        <mxCell id="62I2_9veU08zqm9qWtxy-2" value="Data" style="swimlane;html=1;startSize=20;" vertex="1" parent="NsvNeeM-Z885Ar_qXPRW-5">
          <mxGeometry x="650" y="20" width="400" height="770" as="geometry" />
        </mxCell>
        <mxCell id="62I2_9veU08zqm9qWtxy-3" value="" style="rounded=1;whiteSpace=wrap;html=1;" vertex="1" parent="62I2_9veU08zqm9qWtxy-2">
          <mxGeometry x="110" y="60" width="250" height="470" as="geometry" />
        </mxCell>
        <mxCell id="62I2_9veU08zqm9qWtxy-4" value="Odyssey &lt;br&gt;DB&lt;br&gt;(Tables)" style="shape=dataStorage;whiteSpace=wrap;html=1;" vertex="1" parent="62I2_9veU08zqm9qWtxy-2">
          <mxGeometry x="69.5" y="440" width="261" height="70" as="geometry" />
        </mxCell>
        <mxCell id="62I2_9veU08zqm9qWtxy-5" value="User Repo&amp;nbsp;DB&lt;br&gt;(SP&amp;amp;Functions)&lt;br&gt;&lt;font color=&quot;#ff6666&quot;&gt;Freight_GetShipments&lt;br&gt;&lt;/font&gt;Freight_GetBookings&lt;br&gt;Freight_GetDocuments&lt;br&gt;Freight_GetMasterOrgsOrganizations&lt;br&gt;Freight_GetOrders&lt;br&gt;Freight_GetOrgAddresses&lt;br&gt;Freight_GetOrgParent&lt;br&gt;Freight_GetShipmentPorts&lt;br&gt;Freight_GetShipStatus" style="shape=dataStorage;whiteSpace=wrap;html=1;" vertex="1" parent="62I2_9veU08zqm9qWtxy-2">
          <mxGeometry x="130" y="170" width="210" height="230" as="geometry" />
        </mxCell>
        <mxCell id="62I2_9veU08zqm9qWtxy-6" value="eAdaptor" style="ellipse;whiteSpace=wrap;html=1;" vertex="1" parent="62I2_9veU08zqm9qWtxy-2">
          <mxGeometry x="125" y="85" width="150" height="60" as="geometry" />
        </mxCell>
        <mxCell id="62I2_9veU08zqm9qWtxy-7" value="Cargowise" style="text;html=1;strokeColor=none;fillColor=none;align=center;verticalAlign=middle;whiteSpace=wrap;rounded=0;" vertex="1" parent="62I2_9veU08zqm9qWtxy-2">
          <mxGeometry x="182" y="40" width="40" height="20" as="geometry" />
        </mxCell>
        <mxCell id="62I2_9veU08zqm9qWtxy-8" value="Marine Tracker&lt;br&gt;&amp;nbsp;API" style="rounded=1;whiteSpace=wrap;html=1;strokeColor=#000000;" vertex="1" parent="62I2_9veU08zqm9qWtxy-2">
          <mxGeometry x="117" y="560" width="170" height="60" as="geometry" />
        </mxCell>
        <mxCell id="62I2_9veU08zqm9qWtxy-9" value="" style="html=1;shadow=0;dashed=0;align=center;verticalAlign=middle;shape=mxgraph.arrows2.twoWayArrow;dy=0.65;dx=22;strokeColor=#000000;" vertex="1" parent="62I2_9veU08zqm9qWtxy-2">
          <mxGeometry x="-5" y="110" width="125" height="10" as="geometry" />
        </mxCell>
        <mxCell id="62I2_9veU08zqm9qWtxy-10" value="" style="html=1;shadow=0;dashed=0;align=center;verticalAlign=middle;shape=mxgraph.arrows2.twoWayArrow;dy=0.65;dx=22;strokeColor=#000000;" vertex="1" parent="62I2_9veU08zqm9qWtxy-2">
          <mxGeometry x="-5" y="275" width="65" height="10" as="geometry" />
        </mxCell>
        <mxCell id="62I2_9veU08zqm9qWtxy-11" value="" style="html=1;shadow=0;dashed=0;align=center;verticalAlign=middle;shape=mxgraph.arrows2.twoWayArrow;dy=0.65;dx=22;strokeColor=#000000;" vertex="1" parent="62I2_9veU08zqm9qWtxy-2">
          <mxGeometry x="-6" y="470" width="76" height="10" as="geometry" />
        </mxCell>
        <mxCell id="62I2_9veU08zqm9qWtxy-12" value="" style="html=1;shadow=0;dashed=0;align=center;verticalAlign=middle;shape=mxgraph.arrows2.twoWayArrow;dy=0.65;dx=22;strokeColor=#000000;" vertex="1" parent="62I2_9veU08zqm9qWtxy-2">
          <mxGeometry x="-8" y="585" width="125" height="10" as="geometry" />
        </mxCell>
      </root>
    </mxGraphModel>
  </diagram>
</mxfile>
